<svg width="400" height="300" viewBox="0 0 400 300" fill="none" xmlns="http://www.w3.org/2000/svg">
  <rect width="400" height="300" fill="#1a1a2e"/>
  <rect x="60" y="60" width="280" height="180" rx="8" fill="#333"/>
  <rect x="80" y="80" width="240" height="25" rx="4" fill="#e94560"/>
  <text x="200" y="97" text-anchor="middle" fill="white" font-family="Arial" font-size="12" font-weight="bold">SCHOOL MANAGEMENT SYSTEM</text>
  <rect x="80" y="115" width="100" height="15" rx="3" fill="#666"/>
  <text x="130" y="126" text-anchor="middle" fill="white" font-family="Arial" font-size="10">Students</text>
  <rect x="200" y="115" width="100" height="15" rx="3" fill="#666"/>
  <text x="250" y="126" text-anchor="middle" fill="white" font-family="Arial" font-size="10">Teachers</text>
  <rect x="80" y="140" width="100" height="15" rx="3" fill="#666"/>
  <text x="130" y="151" text-anchor="middle" fill="white" font-family="Arial" font-size="10">Classes</text>
  <rect x="200" y="140" width="100" height="15" rx="3" fill="#666"/>
  <text x="250" y="151" text-anchor="middle" fill="white" font-family="Arial" font-size="10">Attendance</text>
  <rect x="80" y="165" width="100" height="15" rx="3" fill="#666"/>
  <text x="130" y="176" text-anchor="middle" fill="white" font-family="Arial" font-size="10">Exams</text>
  <rect x="200" y="165" width="100" height="15" rx="3" fill="#666"/>
  <text x="250" y="176" text-anchor="middle" fill="white" font-family="Arial" font-size="10">Reports</text>
  <rect x="80" y="190" width="100" height="15" rx="3" fill="#666"/>
  <text x="130" y="201" text-anchor="middle" fill="white" font-family="Arial" font-size="10">Fees</text>
  <rect x="200" y="190" width="100" height="15" rx="3" fill="#666"/>
  <text x="250" y="201" text-anchor="middle" fill="white" font-family="Arial" font-size="10">Admin</text>
  <text x="200" y="250" text-anchor="middle" fill="#e94560" font-family="Arial" font-size="14" font-weight="bold">School Management System</text>
</svg> 